<?xml version="1.0" encoding="iso-8859-1"?>
<!-- Generator: Adobe Illustrator 19.0.0, SVG Export Plug-In . SVG Version: 6.00 Build 0)  -->
<svg version="1.1" id="Layer_1" xmlns="http://www.w3.org/2000/svg" xmlns:xlink="http://www.w3.org/1999/xlink" x="0px" y="0px"
	 viewBox="0 0 512 512" style="enable-background:new 0 0 512 512;" xml:space="preserve">
<g>
	<g>
		<path d="M455.364,56.638c-36.521-36.523-85.08-56.636-136.729-56.636S218.426,20.115,181.904,56.637
			c-36.523,36.521-56.635,85.08-56.635,136.731c0,43.388,14.199,84.59,40.389,118.312l-23.264,23.264l-5.777-5.777
			c-3.191-3.191-8.364-3.191-11.554,0L8.749,445.479C3.107,451.12,0,458.643,0,466.662s3.107,15.542,8.749,21.182l15.406,15.406
			c5.641,5.642,13.164,8.749,21.182,8.749s15.542-3.107,21.182-8.749l116.313-116.313c3.191-3.191,3.191-8.364,0-11.554
			l-5.776-5.776l23.263-23.264c33.722,26.19,74.925,40.39,118.314,40.39c51.65,0,100.208-20.114,136.731-56.636
			C491.886,293.574,512,245.017,512,193.366S491.886,93.159,455.364,56.638z M54.965,491.696c-2.556,2.555-5.974,3.962-9.629,3.962
			s-7.073-1.407-9.629-3.962l-15.406-15.406c-5.309-5.31-5.309-13.948,0-19.258l87.428-87.428l34.663,34.663L54.965,491.696z
			 M153.947,392.715l-34.663-34.663l11.555-11.555l34.663,34.663L153.947,392.715z M165.502,358.054l-11.556-11.556l22.307-22.307
			c1.841,1.999,3.718,3.973,5.65,5.906c1.933,1.932,3.906,3.81,5.905,5.649L165.502,358.054z M443.81,318.544
			c-33.435,33.435-77.891,51.85-125.176,51.85s-91.74-18.414-125.176-51.85c-69.022-69.022-69.022-181.33,0-250.352
			c33.435-33.435,77.891-51.85,125.176-51.85s91.741,18.413,125.176,51.85C512.832,137.214,512.832,249.521,443.81,318.544z"/>
	</g>
</g>
<g>
	<g>
		<path d="M389.885,122.116c-19.032-19.032-44.336-29.514-71.251-29.514c-26.914,0-52.22,10.482-71.251,29.514
			c-39.288,39.287-39.288,103.215,0,142.502c19.032,19.032,44.337,29.514,71.251,29.514c26.915,0,52.22-10.482,71.251-29.514
			c19.032-19.031,29.514-44.335,29.514-71.251S408.917,141.147,389.885,122.116z M378.332,253.065
			c-15.945,15.946-37.147,24.727-59.697,24.727s-43.751-8.782-59.697-24.727c-32.917-32.917-32.917-86.477,0-119.395
			c15.946-15.946,37.147-24.727,59.697-24.727s43.751,8.782,59.697,24.727c15.946,15.945,24.727,37.147,24.727,59.697
			S394.276,237.119,378.332,253.065z"/>
	</g>
</g>
<g>
	<g>
		<path d="M318.631,149.791c-24.027,0-43.574,19.547-43.574,43.574s19.547,43.574,43.574,43.574
			c24.027,0,43.574-19.547,43.574-43.574S342.658,149.791,318.631,149.791z M318.631,220.599c-15.017,0-27.234-12.217-27.234-27.234
			s12.217-27.234,27.234-27.234s27.234,12.217,27.234,27.234S333.648,220.599,318.631,220.599z"/>
	</g>
</g>
<g>
	<g>
		<path d="M428.396,83.606c-60.523-60.523-159.002-60.523-219.525,0s-60.523,159.001,0,219.524
			c25.184,25.184,57.175,40.572,92.519,44.501c4.489,0.496,8.524-2.733,9.023-7.217s-2.733-8.524-7.217-9.023
			c-31.617-3.515-60.239-17.282-82.771-39.815c-54.151-54.151-54.151-142.263,0-196.416c54.153-54.151,142.264-54.151,196.417,0
			c54.151,54.153,54.151,142.264,0,196.417c-22.532,22.532-51.154,36.299-82.77,39.813c-4.485,0.499-7.716,4.538-7.217,9.023
			c0.464,4.178,4.002,7.268,8.11,7.268c0.302,0,0.607-0.016,0.913-0.05c35.344-3.929,67.336-19.316,92.519-44.5
			C488.919,242.607,488.919,144.129,428.396,83.606z"/>
	</g>
</g>
<g>
</g>
<g>
</g>
<g>
</g>
<g>
</g>
<g>
</g>
<g>
</g>
<g>
</g>
<g>
</g>
<g>
</g>
<g>
</g>
<g>
</g>
<g>
</g>
<g>
</g>
<g>
</g>
<g>
</g>
</svg>
